# xmcd
#
# Track frame offsets: 
#        150
#        21951
#        41035
#        74748
#        95608
#        112790
#        137558
#        157234
#        195802
#
# Disc length: 3388 seconds
#
# Revision: 0
# Processed by: cddbd v1.5.2PL0 Copyright (c) Steve Scherf et al.
# Submitted via: ExactAudioCopy v1.1
#
DISCID=780d3a09
DTITLE=The Bluesbones - Live @ De Bosuil
DYEAR=2013
DGENRE=Blues Rock
TTITLE0=The Witchdoctor
TTITLE1=Depression
TTITLE2=Voodoo Guitar
TTITLE3=Broken Down Car
TTITLE4=Riding Out
TTITLE5=Broken Tears
TTITLE6=Cruisin'
TTITLE7=Believe Me
TTITLE8=Whiskey Drinking Woman
EXTD=
EXTT0=
EXTT1=
EXTT2=
EXTT3=
EXTT4=
EXTT5=
EXTT6=
EXTT7=
EXTT8=
PLAYORDER=
